<svg xmlns="http://www.w3.org/2000/svg" viewBox="0 0 184.08 40.68">
    <defs>
        <style>
            .cls-1 {
                fill: #010101;
            }
        </style>
    </defs>
    <g id="Layer_2" data-name="Layer 2">
        <g id="Layer_1-2" data-name="Layer 1">
            <rect class="cls-1" y="0.69" width="4.66" height="30.78" />
            <path class="cls-1"
                d="M10.3,10.13A22.55,22.55,0,0,1,19.46,8C28.46,8,31,12.16,31,18.53V31.37h-5.2V29.59C23.52,31.11,20,31.8,16.48,31.8c-6.48,0-8.82-3.43-8.82-6.88s3.18-7.74,9.43-7.74a16.56,16.56,0,0,1,8.72,2.25V18.5c0-4.37-.62-6.37-6-6.37a19.49,19.49,0,0,0-9.53,2.67ZM25.61,24.48a12.84,12.84,0,0,0-7.8-3c-3.58,0-5,1.8-5,3.44,0,2.22,2.81,3,5.59,2.6a12.54,12.54,0,0,0,7.16-3.11Z" />
            <path class="cls-1"
                d="M61.68,23.13a6.11,6.11,0,0,1-5.87,3.5c-4.72,0-6.39-3.8-6.39-7s1.67-7,6.39-7a6.13,6.13,0,0,1,5.87,3.5l.25.51,4.81-2.83-.26-.45C65,10.78,62,7.7,55.8,7.7c-8.47,0-12.33,6.19-12.33,11.93s3.86,11.88,12.34,11.88c6.16,0,9.21-3.08,10.68-5.66l.26-.45-4.81-2.83Z" />
            <path class="cls-1"
                d="M82.44,7.65c-2.89,0-5.36,1.89-7,3.51V8.07H69.42v23.4h6.07V16.72c1.86-2,4.29-3.32,6.24-3.32a6.38,6.38,0,0,1,5.08,2.39l.48.66,3-5v-.12c0-.46-3.21-3.68-7.92-3.68" />
            <path class="cls-1"
                d="M109.63,21.52c-1.49,2.15-4.28,4.6-7.41,4.6-3.65,0-4-3.78-4-8v-10h-6V18.13c0,9.12,2.79,13.37,8.79,13.37a12.8,12.8,0,0,0,8.55-3.91v3c0,2.24-1,4.9-5.47,4.91h0a10.84,10.84,0,0,1-7.54-2.75l-.4-.42-3.65,4.13.31.35c.14.16,3.5,3.87,11.42,3.87,9.36,0,11.33-5.48,11.33-10.09V8.07h-6Z" />
            <path class="cls-1"
                d="M133.13,7.65A13,13,0,0,0,124.58,11V8h-6V40.42h6V27.76c1.43,1.64,3.88,3.75,7,3.75,6.19,0,10.34-6.17,10.34-11.93,0-5.5-2.3-11.93-8.79-11.93M136,19.58c0,3.27-1.47,6.76-5.59,6.76-2.52,0-4.57-2.56-5.86-4.75V16.8a9.11,9.11,0,0,1,7.41-4c3.65,0,4,4.72,4,6.75" />
            <path class="cls-1"
                d="M153.12,0l-6,1.89V8.06h-3.61v4.88h3.63v9.19c0,4.62,0,9.39,5.76,9.39,2.42,0,5.36-2.17,5.49-2.26l.25-.19-.58-3.79-.65.35a8.67,8.67,0,0,1-3.11.92c-.16,0-.7,0-1-1.27a15.84,15.84,0,0,1-.2-3.15V12.94h6.2V8.06h-6.2Z" />
            <path class="cls-1"
                d="M172.45,7.79a22.09,22.09,0,0,0-9,2.13l-.3.14v5.8l.81-.52a18.24,18.24,0,0,1,8.85-2.46c4.75,0,5.22,1.6,5.22,5.53a16.62,16.62,0,0,0-7.8-1.78h0a10,10,0,0,0-7.1,2.61,7.58,7.58,0,0,0-2.42,5.31c0,3.43,2.35,7.09,9,7.09a18.71,18.71,0,0,0,8.37-1.72v1.31h6V18.41c0-7.34-3.56-10.62-11.54-10.62m5,16.31a10.83,10.83,0,0,1-6,2.4,5.76,5.76,0,0,1-4.21-.75,1.54,1.54,0,0,1-.54-1.2c0-1.27,1.1-2.76,4.2-2.76a11.15,11.15,0,0,1,6.41,2.34" />
        </g>
    </g>
</svg>